<svg width="32" height="32" viewBox="0 0 32 32" fill="none" xmlns="http://www.w3.org/2000/svg">
<path d="M29.9863 20.6519C30.1777 22.4343 28.8917 23.4866 27.4862 23.7385C26.0473 24.0859 24.4431 23.9736 22.9484 23.932C19.1436 23.9947 15.2177 24.1131 11.4068 24.2605C1.08317 25.3895 0.380488 20.6273 1.4315 10.6864C1.78367 10.5596 2.0712 10.215 2.07222 9.64754C2.08544 7.55164 1.6443 5.39466 2.91928 3.77622C6.60811 0.715423 13.448 2.01513 17.8905 1.85816C22.0873 2.44207 30.96 -0.867017 30.7616 6.85214C30.8201 8.90725 30.6259 11.0067 30.4253 13.0646C30.3759 13.5269 30.6849 13.9463 31.0899 13.9647C31.4763 13.9844 31.8034 13.6399 31.8205 13.1955C31.8618 9.97557 32.4183 6.53341 31.3359 3.45801C29.5472 -0.509783 24.9031 0.356196 21.6536 0.351402C15.5549 0.693367 9.17826 -1.12902 3.26094 1.23132C0.235538 2.45667 0.0257467 6.5565 0.14844 9.62268C0.141321 10.0608 0.30859 10.3702 0.546474 10.5514C0.453668 11.2547 0.36875 11.9602 0.296212 12.669C-1.68016 27.7396 6.55115 25.9387 15.5306 25.836C15.5111 26.0226 15.4917 26.2092 15.4713 26.3958C15.3342 27.7174 15.1715 29.0404 15.0762 30.3716C13.4852 30.2438 11.8837 30.0186 10.332 29.6548C9.76261 29.5166 9.20392 30.0106 9.17628 30.6801C9.14632 31.2929 9.55539 31.8175 10.0884 31.8499C13.0675 32.0478 16.0744 32.0528 19.0506 31.8484C20.041 31.7873 21.0321 31.7341 22.0242 31.7858C22.4824 31.8268 22.8638 31.3224 22.761 30.8053C22.4584 29.625 21.21 30.4732 20.4679 30.4144C19.3058 30.5232 18.1362 30.5181 16.9707 30.477C16.8129 28.935 16.7515 27.3769 16.5877 25.8329C17.125 25.8363 17.6636 25.8484 18.2016 25.873C22.6104 25.2965 31.7864 28.4041 31.9092 20.5707C31.8204 19.0841 29.9767 19.1701 29.9863 20.6519Z" fill="#EB1616"/>
<path d="M23.7948 9.29658C22.7199 7.44528 20.2602 6.26507 18.5988 7.8301C16.9406 9.52252 18.0696 12.3182 18.013 14.4844C17.6636 21.1219 24.6725 17.3294 24.6728 12.877C24.7651 11.6097 24.426 10.3358 23.7948 9.29658ZM23.5886 12.8268C23.5549 14.9457 21.7042 16.8661 19.8931 16.6629C19.2905 16.537 19.4245 14.8959 19.4552 14.3447C19.5352 12.8976 19.3178 11.3682 19.5636 9.96628C19.7138 9.25682 20.4039 9.26228 20.9137 9.39225C22.2787 9.74794 23.6662 11.0918 23.5886 12.8268ZM13.4812 17.0093C12.8589 16.8355 12.2273 16.7422 11.5907 16.6667C17.305 8.73104 10.2104 4.48443 8.90615 10.7746C8.78731 11.5871 9.79066 11.8285 9.9648 11.0281C10.0567 10.4751 10.2344 9.9007 10.5781 9.52304C11.113 8.8813 12.0054 9.04763 12.3324 9.80769C12.7021 10.734 12.3431 11.7699 11.9274 12.6496C11.1003 14.2678 9.90893 15.5809 8.69995 16.892C8.07949 17.5563 8.51889 18.7762 9.37628 18.7293C10.7383 18.6539 12.1123 18.5292 13.4548 18.2449C14.0133 18.1411 14.0474 17.1484 13.4812 17.0093Z" fill="#EB1616"/>
</svg>
