<svg width="32" height="25" viewBox="0 0 32 25" fill="none" xmlns="http://www.w3.org/2000/svg">
<path d="M17.1291 24.0541H15.7988C15.6776 24.0541 15.5613 24.0013 15.4756 23.9073C15.3898 23.8133 15.3417 23.6858 15.3417 23.5529C15.3417 23.42 15.3898 23.2926 15.4756 23.1986C15.5613 23.1046 15.6776 23.0518 15.7988 23.0518H17.1291C17.2503 23.0518 17.3666 23.1046 17.4524 23.1986C17.5381 23.2926 17.5862 23.42 17.5862 23.5529C17.5862 23.6858 17.5381 23.8133 17.4524 23.9073C17.3666 24.0013 17.2503 24.0541 17.1291 24.0541Z" fill="#EB1616"/>
<path d="M29.7143 24.0541H24.8869C24.7656 24.0541 24.6493 24.0013 24.5636 23.9073C24.4779 23.8133 24.4297 23.6858 24.4297 23.5529C24.4297 23.42 24.4779 23.2926 24.5636 23.1986C24.6493 23.1046 24.7656 23.0518 24.8869 23.0518H29.7143C30.078 23.0518 30.4268 22.8934 30.684 22.6115C30.9412 22.3295 31.0857 21.9472 31.0857 21.5484V2.50563C31.0857 2.10691 30.9412 1.72452 30.684 1.44258C30.4268 1.16064 30.078 1.00225 29.7143 1.00225H2.28571C1.92199 1.00225 1.57316 1.16064 1.31597 1.44258C1.05878 1.72452 0.914286 2.10691 0.914286 2.50563V21.5484C0.914286 21.9472 1.05878 22.3295 1.31597 22.6115C1.57316 22.8934 1.92199 23.0518 2.28571 23.0518H12.5989C12.7201 23.0518 12.8364 23.1046 12.9221 23.1986C13.0078 23.2926 13.056 23.42 13.056 23.5529C13.056 23.6858 13.0078 23.8133 12.9221 23.9073C12.8364 24.0013 12.7201 24.0541 12.5989 24.0541H2.28571C1.67973 24.0533 1.09877 23.789 0.670272 23.3193C0.241775 22.8496 0.000725878 22.2127 0 21.5484V2.50563C0.000725878 1.84134 0.241775 1.20449 0.670272 0.734761C1.09877 0.265037 1.67973 0.000795717 2.28571 0H29.7143C30.3203 0.000795717 30.9012 0.265037 31.3297 0.734761C31.7582 1.20449 31.9993 1.84134 32 2.50563V21.5484C31.9993 22.2127 31.7582 22.8496 31.3297 23.3193C30.9012 23.789 30.3203 24.0533 29.7143 24.0541Z" fill="#EB1616"/>
<path d="M21.6869 24.0541H20.3292C20.208 24.0541 20.0917 24.0013 20.006 23.9073C19.9202 23.8133 19.8721 23.6858 19.8721 23.5529C19.8721 23.42 19.9202 23.2926 20.006 23.1986C20.0917 23.1046 20.208 23.0518 20.3292 23.0518H21.6869C21.8082 23.0518 21.9244 23.1046 22.0102 23.1986C22.0959 23.2926 22.1441 23.42 22.1441 23.5529C22.1441 23.6858 22.0959 23.8133 22.0102 23.9073C21.9244 24.0013 21.8082 24.0541 21.6869 24.0541ZM27.8858 21.0473H4.11435C3.75062 21.0473 3.40179 20.8889 3.1446 20.607C2.88741 20.325 2.74292 19.9426 2.74292 19.5439V4.51014C2.74292 4.11142 2.88741 3.72903 3.1446 3.44709C3.40179 3.16515 3.75062 3.00676 4.11435 3.00676H27.8858C28.2495 3.00676 28.5983 3.16515 28.8555 3.44709C29.1127 3.72903 29.2572 4.11142 29.2572 4.51014V19.5439C29.2572 19.9426 29.1127 20.325 28.8555 20.607C28.5983 20.8889 28.2495 21.0473 27.8858 21.0473ZM4.11435 4.00901C3.99311 4.00901 3.87683 4.06181 3.7911 4.15579C3.70537 4.24977 3.65721 4.37723 3.65721 4.51014V19.5439C3.65721 19.6768 3.70537 19.8043 3.7911 19.8983C3.87683 19.9923 3.99311 20.0451 4.11435 20.0451H27.8858C28.007 20.0451 28.1233 19.9923 28.209 19.8983C28.2948 19.8043 28.3429 19.6768 28.3429 19.5439V4.51014C28.3429 4.37723 28.2948 4.24977 28.209 4.15579C28.1233 4.06181 28.007 4.00901 27.8858 4.00901H4.11435Z" fill="#EB1616"/>
<path d="M11.3564 15.1681H10.5943V12.2114H7.61558V15.1681H6.85718V8.88597H7.61558V11.4658H10.5943V8.88597H11.3564V15.1681Z" fill="#EB1616"/>
<path d="M11.3567 15.2934H10.5942C10.5639 15.2934 10.5348 15.2802 10.5134 15.2567C10.492 15.2332 10.4799 15.2013 10.4799 15.1681V12.3367H7.72977V15.1681C7.72977 15.2013 7.71773 15.2332 7.6963 15.2567C7.67486 15.2802 7.64579 15.2934 7.61548 15.2934H6.85708C6.82677 15.2934 6.7977 15.2802 6.77627 15.2567C6.75484 15.2332 6.7428 15.2013 6.7428 15.1681V8.88598C6.7428 8.85275 6.75484 8.82089 6.77627 8.79739C6.7977 8.7739 6.82677 8.7607 6.85708 8.7607H7.61548C7.64579 8.7607 7.67486 8.7739 7.6963 8.79739C7.71773 8.82089 7.72977 8.85275 7.72977 8.88598V11.3415H10.4799V8.88598C10.4799 8.85275 10.492 8.82089 10.5134 8.79739C10.5348 8.7739 10.5639 8.7607 10.5942 8.7607H11.3567C11.387 8.76083 11.416 8.77407 11.4374 8.79754C11.4588 8.821 11.4709 8.85279 11.471 8.88598V15.1681C11.4709 15.2013 11.4588 15.2331 11.4374 15.2565C11.416 15.28 11.387 15.2932 11.3567 15.2934ZM10.7085 15.0428H11.2425V9.01126H10.7085V11.4668C10.7084 11.5 10.6963 11.5318 10.6749 11.5552C10.6535 11.5787 10.6245 11.5919 10.5942 11.5921H7.61548C7.58517 11.5921 7.5561 11.5789 7.53467 11.5554C7.51324 11.5319 7.5012 11.5 7.5012 11.4668V9.01126H6.97137V15.0428H7.5012V12.2115C7.50114 12.195 7.50405 12.1787 7.50977 12.1634C7.5155 12.1482 7.52391 12.1344 7.53454 12.1227C7.54516 12.1111 7.55778 12.1018 7.57168 12.0956C7.58557 12.0893 7.60046 12.0861 7.61548 12.0862H10.5942C10.6245 12.0862 10.6536 12.0994 10.675 12.1229C10.6965 12.1464 10.7085 12.1782 10.7085 12.2115V15.0428ZM13.6114 8.88598H15.4294C17.3759 8.88598 18.3492 9.92164 18.3492 11.993C18.3492 14.1097 17.3759 15.1681 15.4294 15.1681H13.6114V8.88598ZM14.3698 14.4224H15.4134C16.2451 14.4224 16.812 14.2103 17.114 13.786C17.4437 13.2607 17.6034 12.6294 17.5675 11.993C17.6032 11.372 17.4438 10.7563 17.1158 10.2485C16.815 9.83762 16.2476 9.63199 15.4134 9.63165H14.3698V14.4224Z" fill="#EB1616"/>
<path d="M15.4295 15.2934H13.6115C13.5812 15.2932 13.5522 15.28 13.5308 15.2565C13.5094 15.2331 13.4973 15.2013 13.4972 15.1681V8.88598C13.4973 8.85279 13.5094 8.821 13.5308 8.79754C13.5522 8.77407 13.5812 8.76083 13.6115 8.7607H15.4295C17.441 8.7607 18.4636 9.84814 18.4636 11.993C18.4636 14.1819 17.4423 15.2934 15.4295 15.2934ZM13.7258 15.0428H15.4295C17.3171 15.0428 18.235 14.0451 18.235 11.993C18.235 9.98846 17.3171 9.01126 15.4295 9.01126H13.7258V15.0428ZM15.414 14.5477H14.3703C14.34 14.5477 14.311 14.5345 14.2895 14.511C14.2681 14.4875 14.2561 14.4556 14.2561 14.4224V9.63165C14.2561 9.59843 14.2681 9.56656 14.2895 9.54307C14.311 9.51957 14.34 9.50637 14.3703 9.50637H15.414C16.2803 9.50637 16.8832 9.72987 17.2055 10.1704C17.549 10.7007 17.717 11.3437 17.6819 11.993C17.7173 12.6573 17.5491 13.3156 17.2042 13.8632C16.8805 14.3172 16.278 14.5477 15.414 14.5477ZM14.4846 14.2971H15.414C16.2039 14.2971 16.7456 14.0967 17.0236 13.7088C17.3367 13.2051 17.4879 12.6014 17.4533 11.993C17.4876 11.4008 17.3372 10.8134 17.0268 10.3272C16.7525 9.94887 16.2076 9.75694 15.414 9.75694H14.4846V14.2971ZM25.1429 15.1681H24.32L23.7806 13.4923C23.6891 13.2031 23.5218 12.9498 23.2997 12.7642C23.0785 12.5764 22.8056 12.4765 22.5258 12.4811H21.1223V15.1681H20.3662V8.88598H22.9029C23.2694 8.87544 23.6354 8.92303 23.9895 9.0273C24.2772 9.127 24.5218 9.33832 24.6775 9.62163C24.8555 9.92725 24.9479 10.2834 24.9431 10.6459C24.9552 11.0428 24.8327 11.4306 24.5994 11.7344C24.3533 12.0358 24.0211 12.2367 23.6572 12.3042V12.3212C23.8792 12.4198 24.0771 12.5737 24.2352 12.7709C24.3934 12.968 24.5074 13.2028 24.5683 13.4568L25.1429 15.1681ZM21.1242 11.7359H22.8156C23.172 11.766 23.5286 11.681 23.8414 11.4913C23.9547 11.3911 24.0433 11.2613 24.0992 11.114C24.1551 10.9666 24.1765 10.8062 24.1614 10.6474C24.1614 9.9335 23.7523 9.57636 22.934 9.57603H21.1242V11.7359Z" fill="#EB1616"/>
<path d="M25.1428 15.2934H24.3199C24.2963 15.2934 24.2733 15.2853 24.2541 15.2703C24.2348 15.2553 24.2203 15.2341 24.2125 15.2097L23.6726 13.5339C23.5882 13.2676 23.4342 13.0344 23.2297 12.8634C23.0287 12.6921 22.7802 12.6014 22.5257 12.6063H21.2365V15.1681C21.2365 15.2013 21.2245 15.2332 21.203 15.2567C21.1816 15.2802 21.1525 15.2934 21.1222 15.2934H20.3661C20.3358 15.2934 20.3067 15.2802 20.2853 15.2567C20.2639 15.2332 20.2518 15.2013 20.2518 15.1681V8.88598C20.2518 8.85275 20.2639 8.82088 20.2853 8.79739C20.3067 8.77389 20.3358 8.76069 20.3661 8.76069H22.9028C23.2808 8.75042 23.6581 8.79987 24.0233 8.90752C24.3369 9.01634 24.6036 9.24669 24.7734 9.55548C24.963 9.88142 25.0616 10.2609 25.0573 10.6474C25.069 11.0743 24.9366 11.4909 24.6857 11.8176C24.4925 12.0597 24.244 12.241 23.9657 12.3427C24.3039 12.604 24.5535 12.9811 24.6751 13.4147L25.2498 15.1245C25.2562 15.1434 25.2583 15.1638 25.256 15.1838C25.2537 15.2038 25.247 15.223 25.2365 15.2395C25.226 15.2561 25.212 15.2697 25.1957 15.2791C25.1794 15.2884 25.1612 15.2933 25.1428 15.2934ZM24.4027 15.0428H24.9791L24.4607 13.5013C24.4049 13.2659 24.3002 13.0478 24.1548 12.864C24.0093 12.6802 23.8271 12.5358 23.6223 12.442C23.5992 12.434 23.579 12.4181 23.5647 12.3966C23.5504 12.3752 23.5427 12.3493 23.5428 12.3227C23.5425 12.2918 23.5512 12.2615 23.5676 12.2364C23.5841 12.2112 23.6074 12.1925 23.6342 12.1829C23.9731 12.1205 24.2827 11.9339 24.5124 11.6537C24.7287 11.3733 24.8415 11.0144 24.8287 10.6474C24.8328 10.309 24.7469 9.97656 24.5814 9.69079C24.4408 9.43099 24.2173 9.23748 23.9542 9.14756C23.6115 9.04721 23.2574 9.00131 22.9028 9.01126H20.4799V15.0428H21.0093V12.4811C21.0093 12.4478 21.0214 12.416 21.0428 12.3925C21.0642 12.369 21.0933 12.3558 21.1236 12.3558H22.527C22.8318 12.3519 23.1289 12.4606 23.3705 12.6645C23.6095 12.8654 23.7899 13.1385 23.8893 13.4502L24.4027 15.0428ZM22.8169 11.8607H21.1254C21.1104 11.8607 21.0955 11.8575 21.0816 11.8513C21.0677 11.845 21.0551 11.8358 21.0445 11.8241C21.0339 11.8125 21.0254 11.7986 21.0197 11.7834C21.014 11.7682 21.0111 11.7518 21.0111 11.7354V9.57603C21.0111 9.5428 21.0232 9.51093 21.0446 9.48744C21.0661 9.46394 21.0951 9.45074 21.1254 9.45074H22.9353C24.0443 9.45074 24.2774 10.1022 24.2774 10.6474C24.2932 10.8261 24.268 11.0063 24.2041 11.1716C24.1402 11.3369 24.0397 11.4821 23.9117 11.5941C23.5791 11.8004 23.1979 11.8932 22.8169 11.8607ZM21.2383 11.6101H22.8169C23.1496 11.6389 23.4829 11.562 23.7769 11.3886C23.8747 11.2996 23.9507 11.1851 23.9979 11.0557C24.0451 10.9262 24.062 10.7859 24.047 10.6474C24.047 10.241 23.9314 9.70131 22.9334 9.70131H21.2383V11.6101Z" fill="#EB1616"/>
</svg>
