<svg width="32" height="32" viewBox="0 0 32 32" fill="none" xmlns="http://www.w3.org/2000/svg">
<path fill-rule="evenodd" clip-rule="evenodd" d="M5.31117 8.4458L28.3749 31.4703C29.0823 32.1766 30.2463 32.1766 30.9538 31.4703L31.4694 30.9556C32.1769 30.2493 32.1769 29.0874 31.4694 28.3811L8.405 5.35732C8.06214 5.01786 7.5988 4.82739 7.11591 4.82739C6.63301 4.82739 6.16967 5.01786 5.82681 5.35732L5.31117 5.87206C4.97113 6.21433 4.78032 6.67687 4.78032 7.15893C4.78032 7.64099 4.97113 8.10352 5.31117 8.4458ZM9.69446 8.70353L30.4381 29.4106C30.5061 29.4791 30.5443 29.5716 30.5443 29.668C30.5443 29.7644 30.5061 29.8569 30.4381 29.9254L29.9218 30.4408C29.8532 30.5087 29.7605 30.5468 29.6639 30.5468C29.5674 30.5468 29.4747 30.5087 29.4061 30.4408L8.66318 9.73303L9.69446 8.70353ZM3.54911 0.362746C3.48499 0.252415 3.39297 0.160833 3.28225 0.0971709C3.17153 0.0335087 3.046 0 2.91823 0C2.79046 0 2.66493 0.0335087 2.55421 0.0971709C2.44349 0.160833 2.35147 0.252415 2.28736 0.362746L1.58064 1.57863L0.362652 2.2834C0.252314 2.34755 0.160758 2.43946 0.0971232 2.54997C0.0334884 2.66048 0 2.78571 0 2.91318C0 3.04065 0.0334884 3.16588 0.0971232 3.27639C0.160758 3.3869 0.252314 3.47881 0.362652 3.54296L1.58064 4.24846L2.28736 5.46361C2.35147 5.57395 2.44349 5.66553 2.55421 5.72919C2.66493 5.79285 2.79046 5.82636 2.91823 5.82636C3.046 5.82636 3.17153 5.79285 3.28225 5.72919C3.39297 5.66553 3.48499 5.57395 3.54911 5.46361L4.25583 4.24773L5.47308 3.54369C5.58359 3.47959 5.67531 3.38765 5.73906 3.27707C5.80281 3.16649 5.83636 3.04113 5.83636 2.91354C5.83636 2.78596 5.80281 2.6606 5.73906 2.55002C5.67531 2.43944 5.58359 2.3475 5.47308 2.2834L4.2551 1.57863L3.54911 0.362746ZM20.3238 4.73117C20.2596 4.62084 20.1676 4.52926 20.0569 4.4656C19.9462 4.40194 19.8207 4.36843 19.6929 4.36843C19.5651 4.36843 19.4396 4.40194 19.3289 4.4656C19.2181 4.52926 19.1261 4.62084 19.062 4.73117L18.3553 5.94705L17.1373 6.65183C17.027 6.71598 16.9354 6.80789 16.8718 6.9184C16.8081 7.02891 16.7746 7.15414 16.7746 7.28161C16.7746 7.40907 16.8081 7.53431 16.8718 7.64482C16.9354 7.75533 17.027 7.84724 17.1373 7.91139L18.3553 8.61689L19.062 9.83204C19.1261 9.94237 19.2181 10.034 19.3289 10.0976C19.4396 10.1613 19.5651 10.1948 19.6929 10.1948C19.8207 10.1948 19.9462 10.1613 20.0569 10.0976C20.1676 10.034 20.2596 9.94237 20.3238 9.83204L21.0305 8.61616L22.2477 7.91212C22.3582 7.84802 22.45 7.75608 22.5137 7.6455C22.5775 7.53491 22.611 7.40956 22.611 7.28197C22.611 7.15438 22.5775 7.02903 22.5137 6.91845C22.45 6.80787 22.3582 6.71593 22.2477 6.65183L21.0297 5.94705L20.3238 4.73117ZM6.46643 16.3803C6.40232 16.27 6.3103 16.1784 6.19958 16.1147C6.08886 16.0511 5.96333 16.0176 5.83556 16.0176C5.70779 16.0176 5.58226 16.0511 5.47154 16.1147C5.36082 16.1784 5.2688 16.27 5.20469 16.3803L4.49797 17.5962L3.27998 18.3002C3.16947 18.3643 3.07776 18.4563 3.01401 18.5669C2.95026 18.6774 2.9167 18.8028 2.9167 18.9304C2.9167 19.058 2.95026 19.1833 3.01401 19.2939C3.07776 19.4045 3.16947 19.4964 3.27998 19.5605L4.49797 20.2653L5.20469 21.4812C5.2688 21.5915 5.36082 21.6831 5.47154 21.7468C5.58226 21.8104 5.70779 21.8439 5.83556 21.8439C5.96333 21.8439 6.08886 21.8104 6.19958 21.7468C6.3103 21.6831 6.40232 21.5915 6.46643 21.4812L7.17316 20.2653L8.39041 19.5605C8.50075 19.4964 8.59231 19.4045 8.65594 19.294C8.71958 19.1835 8.75307 19.0582 8.75307 18.9308C8.75307 18.8033 8.71958 18.678 8.65594 18.5675C8.59231 18.457 8.50075 18.3651 8.39041 18.301L7.17243 17.5955L6.46643 16.3803Z" fill="#EB1616"/>
</svg>
