<svg width="32" height="32" viewBox="0 0 32 32" fill="none" xmlns="http://www.w3.org/2000/svg">
<path d="M16 18.6667C15.84 18.6667 0 18.5213 0 13.3333C0 11.8067 1.60667 10.4813 4.648 9.5C4.73221 9.46936 4.82173 9.456 4.91121 9.46074C5.0007 9.46548 5.08831 9.4882 5.16881 9.52757C5.24931 9.56693 5.32106 9.62211 5.37975 9.68983C5.43844 9.75754 5.48288 9.83639 5.51041 9.92167C5.53793 10.0069 5.54799 10.0969 5.53997 10.1861C5.53195 10.2754 5.50601 10.3621 5.46372 10.4411C5.42143 10.5201 5.36364 10.5898 5.29382 10.6459C5.224 10.7021 5.14356 10.7436 5.05733 10.768C2.31067 11.6547 1.33333 12.6747 1.33333 13.3333C1.33333 15.812 9.876 17.3333 16 17.3333C21.264 17.3333 30.6667 15.9973 30.6667 13.3333C30.6667 12.5067 29.3413 11.5667 27.1213 10.8187C27.0353 10.7933 26.9553 10.7508 26.8861 10.6938C26.8169 10.6367 26.76 10.5663 26.7186 10.4868C26.6772 10.4072 26.6523 10.3201 26.6454 10.2307C26.6385 10.1413 26.6497 10.0514 26.6783 9.96647C26.707 9.88149 26.7524 9.80316 26.812 9.73616C26.8716 9.66917 26.9441 9.61489 27.0252 9.57656C27.1063 9.53824 27.1942 9.51667 27.2838 9.51314C27.3734 9.5096 27.4628 9.52418 27.5467 9.556C31.228 10.7947 32 12.2947 32 13.3333C32 18.5213 16.16 18.6667 16 18.6667Z" fill="#EB1616"/>
<path d="M16 32C8.244 32 0 30.1307 0 26.6667V13.3333C0 13.1565 0.0702379 12.987 0.195262 12.8619C0.320286 12.7369 0.489856 12.6667 0.666667 12.6667C0.843478 12.6667 1.01305 12.7369 1.13807 12.8619C1.2631 12.987 1.33333 13.1565 1.33333 13.3333V26.6667C1.33333 28.3373 6.91333 30.6667 16 30.6667C25.0867 30.6667 30.6667 28.3373 30.6667 26.6667V13.3333C30.6667 13.1565 30.7369 12.987 30.8619 12.8619C30.987 12.7369 31.1565 12.6667 31.3333 12.6667C31.5101 12.6667 31.6797 12.7369 31.8047 12.8619C31.9298 12.987 32 13.1565 32 13.3333V26.6667C32 30.1307 23.756 32 16 32Z" fill="#EB1616"/>
<path d="M4.81333 30.52C4.68154 30.5193 4.55289 30.4797 4.44357 30.4061C4.33425 30.3325 4.24915 30.2282 4.19898 30.1063C4.14881 29.9845 4.13581 29.8505 4.16161 29.7212C4.18741 29.592 4.25087 29.4733 4.344 29.38L8.98266 24.78C9.14585 24.6138 9.34053 24.4819 9.55533 24.3918C9.77012 24.3018 10.0007 24.2555 10.2336 24.2556C10.4665 24.2557 10.6971 24.3023 10.9117 24.3926C11.1264 24.4828 11.321 24.615 11.484 24.7813L14.14 27.3173C14.2413 27.4187 14.3667 27.4787 14.4493 27.4653C14.5113 27.4621 14.572 27.4465 14.6278 27.4194C14.6837 27.3924 14.7336 27.3545 14.7747 27.308L18.704 23.2293C19.4187 22.516 20.476 22.48 21.176 23.1413L27.772 28.952C27.8421 29.0085 27.9 29.0785 27.9423 29.158C27.9846 29.2374 28.0103 29.3246 28.018 29.4142C28.0257 29.5039 28.0152 29.5942 27.987 29.6797C27.9589 29.7652 27.9137 29.8441 27.8543 29.9116C27.7948 29.9792 27.7223 30.034 27.6411 30.0728C27.5599 30.1116 27.4717 30.1335 27.3818 30.1373C27.2918 30.1411 27.2021 30.1266 27.1179 30.0947C27.0338 30.0629 26.9569 30.0143 26.892 29.952L20.2787 24.1253C20.0507 23.916 19.812 24.008 19.656 24.1627L15.7333 28.2347C15.3813 28.5947 14.9293 28.7933 14.4587 28.7973C13.9413 28.8107 13.5493 28.6133 13.208 28.2693L10.552 25.7333C10.3533 25.5333 10.1107 25.5373 9.924 25.7227L5.284 30.3253C5.22226 30.3872 5.14889 30.4363 5.06811 30.4697C4.98733 30.5031 4.90074 30.5202 4.81333 30.52Z" fill="#EB1616"/>
<path d="M14 24C12.8974 24 12 23.1027 12 22C12 20.8973 12.8974 20 14 20C15.1027 20 16 20.8973 16 22C16 23.1027 15.1027 24 14 24ZM14 21.3333C13.8229 21.3337 13.6531 21.4044 13.5281 21.5299C13.4031 21.6555 13.333 21.8255 13.3334 22.0027C13.3337 22.1798 13.4044 22.3496 13.53 22.4746C13.6555 22.5996 13.8255 22.6697 14.0027 22.6693C14.1799 22.669 14.3496 22.5983 14.4747 22.4727C14.5997 22.3472 14.6697 22.1772 14.6694 22C14.669 21.8228 14.5983 21.6531 14.4728 21.528C14.3473 21.403 14.1772 21.333 14 21.3333ZM26 17.5333C25.8232 17.5333 25.6537 17.4631 25.5286 17.3381C25.4036 17.213 25.3334 17.0435 25.3334 16.8667V13.92C25.3334 13.7432 25.4036 13.5736 25.5286 13.4486C25.6537 13.3236 25.8232 13.2533 26 13.2533C26.1769 13.2533 26.3464 13.3236 26.4714 13.4486C26.5965 13.5736 26.6667 13.7432 26.6667 13.92V16.8667C26.6667 17.0435 26.5965 17.213 26.4714 17.3381C26.3464 17.4631 26.1769 17.5333 26 17.5333ZM6.00004 17.5333C5.82323 17.5333 5.65366 17.4631 5.52864 17.3381C5.40361 17.213 5.33337 17.0435 5.33337 16.8667V14.3067C5.33337 14.1299 5.40361 13.9603 5.52864 13.8353C5.65366 13.7102 5.82323 13.64 6.00004 13.64C6.17685 13.64 6.34642 13.7102 6.47145 13.8353C6.59647 13.9603 6.66671 14.1299 6.66671 14.3067V16.8667C6.66671 17.0435 6.59647 17.213 6.47145 17.3381C6.34642 17.4631 6.17685 17.5333 6.00004 17.5333ZM16.6667 12H14.6667C13.9307 12 13.3334 11.4013 13.3334 10.6667V5.33333C13.3334 4.59867 13.9307 4 14.6667 4H17.3334C17.5102 4 17.6798 4.07024 17.8048 4.19526C17.9298 4.32029 18 4.48986 18 4.66667C18 4.84348 17.9298 5.01305 17.8048 5.13807C17.6798 5.2631 17.5102 5.33333 17.3334 5.33333H14.6667V7.33333H16.6667C17.4027 7.33333 18 7.932 18 8.66667V10.6667C18 11.4013 17.4027 12 16.6667 12ZM14.6667 8.66667V10.6667H16.6667V8.66667H14.6667ZM22.6667 12H20.6667C19.9307 12 19.3334 11.4013 19.3334 10.6667V5.33333C19.3334 4.59867 19.9307 4 20.6667 4H22.6667C23.4027 4 24 4.59867 24 5.33333V10.6667C24 11.4013 23.4027 12 22.6667 12ZM20 10.6667L20.6667 10.668V10.6667H20ZM20.6667 10.6667H22.6667V5.33333H20.6667V10.6667ZM10.6667 12H8.66671C8.4899 12 8.32033 11.9298 8.1953 11.8047C8.07028 11.6797 8.00004 11.5101 8.00004 11.3333C8.00004 11.1565 8.07028 10.987 8.1953 10.8619C8.32033 10.7369 8.4899 10.6667 8.66671 10.6667H10.6667V8.66667H8.66671C8.4899 8.66667 8.32033 8.59643 8.1953 8.4714C8.07028 8.34638 8.00004 8.17681 8.00004 8C8.00004 7.82319 8.07028 7.65362 8.1953 7.5286C8.32033 7.40357 8.4899 7.33333 8.66671 7.33333H10.6667C11.4027 7.33333 12 7.932 12 8.66667V10.6667C12 11.4013 11.4027 12 10.6667 12Z" fill="#EB1616"/>
<path d="M10.6667 8.66667H8.66667C8.48986 8.66667 8.32029 8.59643 8.19526 8.4714C8.07024 8.34638 8 8.17681 8 8C8 7.82319 8.07024 7.65362 8.19526 7.5286C8.32029 7.40357 8.48986 7.33333 8.66667 7.33333H10.6667V5.33333H8.66667C8.48986 5.33333 8.32029 5.2631 8.19526 5.13807C8.07024 5.01305 8 4.84348 8 4.66667C8 4.48986 8.07024 4.32029 8.19526 4.19526C8.32029 4.07024 8.48986 4 8.66667 4H10.6667C11.4027 4 12 4.59867 12 5.33333V7.33333C12 8.068 11.4027 8.66667 10.6667 8.66667ZM27.3333 4C26.2307 4 25.3333 3.10267 25.3333 2C25.3333 0.897333 26.2307 0 27.3333 0C28.436 0 29.3333 0.897333 29.3333 2C29.3333 3.10267 28.436 4 27.3333 4ZM27.3333 1.33333C27.2456 1.33351 27.1588 1.35096 27.0778 1.38469C26.9968 1.41842 26.9233 1.46778 26.8614 1.52993C26.7995 1.59208 26.7504 1.66582 26.717 1.74693C26.6836 1.82805 26.6665 1.91494 26.6667 2.00267C26.6668 2.09039 26.6843 2.17722 26.718 2.2582C26.7518 2.33918 26.8011 2.41272 26.8633 2.47462C26.9254 2.53653 26.9992 2.58559 27.0803 2.619C27.1614 2.6524 27.2483 2.66951 27.336 2.66933C27.5132 2.66898 27.6829 2.59826 27.808 2.47274C27.933 2.34721 28.003 2.17716 28.0027 2C28.0023 1.82284 27.9316 1.65307 27.8061 1.52804C27.6805 1.40302 27.5105 1.33298 27.3333 1.33333Z" fill="#EB1616"/>
</svg>
