<svg width="32" height="32" viewBox="0 0 32 32" fill="none" xmlns="http://www.w3.org/2000/svg">
<path d="M19.6972 22.8495L13.5796 19.3085C13.4846 19.2535 13.3768 19.2246 13.2671 19.2246C13.1574 19.2246 13.0496 19.2535 12.9546 19.3085C12.8596 19.3634 12.7807 19.4424 12.7258 19.5375C12.671 19.6327 12.6421 19.7406 12.6421 19.8504V26.9319C12.6421 27.0418 12.671 27.1497 12.7258 27.2448C12.7807 27.34 12.8596 27.419 12.9546 27.4739C13.0496 27.5288 13.1574 27.5577 13.2671 27.5577C13.3768 27.5577 13.4846 27.5288 13.5796 27.4739L19.6972 23.9328C19.7921 23.8779 19.8708 23.7989 19.9256 23.7038C19.9803 23.6087 20.0092 23.5009 20.0092 23.3912C20.0092 23.2814 19.9803 23.1736 19.9256 23.0785C19.8708 22.9835 19.7921 22.9045 19.6972 22.8495ZM13.8921 25.8473V20.935L18.1353 23.3915L13.8921 25.8473Z" fill="#EB1616"/>
<path d="M30.125 9.87632H8.41205L29.7956 6.09621C30.2851 6.00966 30.7202 5.73203 31.0054 5.32433C31.2905 4.91663 31.4023 4.41223 31.3162 3.92202L30.9006 1.55507C30.7462 0.557467 29.7168 -0.164134 28.7281 0.0323819L1.5488 4.83638C1.05955 4.92294 0.62461 5.20039 0.339495 5.60781C0.0543794 6.01523 -0.0576015 6.5193 0.0281441 7.00932L0.653156 10.5547V30.1225C0.653156 30.6204 0.850704 31.098 1.20234 31.4501C1.55398 31.8022 2.0309 32 2.52819 32H30.125C30.6223 32 31.0992 31.8022 31.4508 31.4501C31.8025 31.098 32 30.6204 32 30.1225V11.7539C32 11.2559 31.8025 10.7783 31.4508 10.4262C31.0992 10.0741 30.6223 9.87632 30.125 9.87632ZM30.75 11.7539V14.7823H25.9068L27.2337 11.128H30.125C30.2907 11.128 30.4497 11.194 30.5669 11.3113C30.6841 11.4287 30.75 11.5879 30.75 11.7539ZM1.90193 14.7823V11.128H8.21892L6.89202 14.7823H1.90193ZM9.54895 11.128H14.1115L12.7865 14.7823H8.22392L9.54895 11.128ZM15.4434 11.128H20.006L18.6816 14.7823H14.119L15.4434 11.128ZM21.3385 11.128H25.9011L24.5767 14.7823H20.0141L21.3385 11.128ZM19.4248 6.65822L15.1747 7.40924L13.7997 3.94267L18.0529 3.19166L19.4248 6.65822ZM19.3098 2.96572L23.6692 2.19468L25.0442 5.66312L20.6842 6.43354L19.3098 2.96572ZM13.9153 7.63517L9.6652 8.38618L8.29018 4.91774L12.5403 4.16672L13.9153 7.63517ZM28.9449 1.26467C28.9813 1.25847 29.0181 1.25533 29.0549 1.25529C29.2017 1.25554 29.3436 1.30747 29.4559 1.40199C29.5683 1.4965 29.6438 1.62756 29.6693 1.77224L30.0856 4.13856C30.0999 4.21952 30.0981 4.3025 30.0804 4.38278C30.0627 4.46305 30.0293 4.53904 29.9822 4.6064C29.9352 4.67376 29.8753 4.73117 29.8061 4.77536C29.7368 4.81954 29.6596 4.84964 29.5787 4.86392L26.2986 5.4447L24.9236 1.97626L28.9449 1.26467ZM1.76568 6.07055L7.0339 5.13804L8.40893 8.60648L1.7838 9.77681L1.25879 6.79403C1.23045 6.63081 1.2679 6.46301 1.36291 6.32739C1.45793 6.19177 1.60277 6.09941 1.76568 6.07055ZM30.125 30.7483H2.52694C2.36118 30.7483 2.2022 30.6824 2.08499 30.565C1.96778 30.4476 1.90193 30.2884 1.90193 30.1225V16.034H30.75V30.1225C30.75 30.2884 30.6841 30.4476 30.5669 30.565C30.4497 30.6824 30.2907 30.7483 30.125 30.7483Z" fill="#EB1616"/>
<path d="M4.66633 12.5124C4.58262 12.4286 4.47686 12.3703 4.36136 12.3443C4.24586 12.3184 4.12537 12.3258 4.01391 12.3657C3.90246 12.4056 3.80461 12.4764 3.73177 12.5698C3.65892 12.6633 3.61407 12.7755 3.60244 12.8935C3.5908 13.0114 3.61286 13.1303 3.66605 13.2362C3.71923 13.3421 3.80135 13.4306 3.90286 13.4916C4.00436 13.5526 4.12108 13.5835 4.23942 13.5806C4.35776 13.5778 4.47286 13.5414 4.57133 13.4756C4.64741 13.4235 4.71119 13.3554 4.75817 13.2761C4.80514 13.1967 4.83418 13.108 4.84324 13.0162C4.85229 12.9244 4.84115 12.8317 4.81058 12.7446C4.78002 12.6576 4.73078 12.5783 4.66633 12.5124ZM3.17755 7.81228C3.19313 7.85005 3.21217 7.88629 3.23443 7.92055C3.28625 7.99692 3.3542 8.06095 3.43347 8.10812C3.51273 8.15529 3.60138 8.18444 3.69314 8.19352C3.7849 8.20259 3.87754 8.19137 3.96449 8.16064C4.05144 8.12991 4.13058 8.08042 4.19632 8.01568C4.62821 7.57759 4.23632 6.84284 3.63381 6.95925C3.54342 6.97773 3.45821 7.01592 3.38423 7.07111C3.31025 7.12629 3.24932 7.19712 3.20576 7.27855C3.16221 7.35998 3.1371 7.45002 3.13223 7.54226C3.12735 7.63451 3.14283 7.7267 3.17755 7.81228Z" fill="#EB1616"/>
</svg>

