<svg width="32" height="32" viewBox="0 0 32 32" fill="none" xmlns="http://www.w3.org/2000/svg">
<path d="M4.625 17.2257C4.78931 17.2257 4.95062 17.1594 5.06687 17.0432C5.18364 16.9255 5.24942 16.7665 5.25 16.6007C5.25 16.4363 5.18312 16.275 5.06687 16.1588C4.95062 16.0425 4.78931 15.9757 4.625 15.9757C4.46069 15.9757 4.29938 16.0425 4.18313 16.1588C4.06637 16.2763 4.00058 16.435 4 16.6007C4 16.7657 4.06688 16.9269 4.18313 17.0433C4.30069 17.1598 4.45945 17.2254 4.625 17.2257Z" fill="#EB1616"/>
<path d="M31.6775 8.57817L25.9653 5.42024C25.6633 5.25299 25.2829 5.36287 25.1159 5.66487C24.9489 5.96687 25.0586 6.34724 25.3606 6.51424L30.75 9.49367V30.75H28V11.125C28 10.7799 27.7202 10.5 27.375 10.5H4.625C4.27981 10.5 4 10.7799 4 11.125V14.1008C4 14.4461 4.27981 14.7258 4.625 14.7258C4.97019 14.7258 5.25 14.4461 5.25 14.1008V11.75H26.75V30.75H24.1331V24.5C24.1331 23.8108 23.5722 23.25 22.8831 23.25H20.3831V17C20.3831 16.3108 19.8222 15.75 19.1331 15.75H12.8831C12.1936 15.75 11.6331 16.3108 11.6331 17V23.25H9.125C8.43581 23.25 7.875 23.8108 7.875 24.5V30.75H5.25V19.1008C5.25 18.7557 4.97019 18.4758 4.625 18.4758C4.27981 18.4758 4 18.7557 4 19.1008V30.75H1.25V9.49367L16 1.33919L20.9846 4.09506C21.2866 4.26199 21.667 4.15243 21.834 3.85037C22.001 3.54831 21.8914 3.16806 21.5894 3.001L16.3025 0.0781896C16.2099 0.0269059 16.1058 0 16 0C15.8942 0 15.7901 0.0269059 15.6975 0.0781896L0.3225 8.57817C0.224767 8.63218 0.143299 8.71139 0.0865788 8.80757C0.0298588 8.90376 -3.84943e-05 9.01339 3.71974e-08 9.12505V31.375C3.71974e-08 31.7202 0.279813 32 0.625 32H31.375C31.7202 32 32 31.7202 32 31.375V9.12505C32 9.01339 31.9701 8.90376 31.9134 8.80757C31.8567 8.71139 31.7752 8.63218 31.6775 8.57817ZM19.1331 24.5H20.3831V25.75H19.1331V24.5ZM16.625 17V18.25H15.375V17H16.625ZM12.8831 17H14.125V18.875C14.125 19.2202 14.4048 19.5 14.75 19.5H17.25C17.5952 19.5 17.875 19.2202 17.875 18.875V17H19.1331L19.1338 23.25H12.8831V17ZM12.8831 24.5V25.75H11.6331V24.5H12.8831ZM9.125 30.75V24.5H10.3831V26.375C10.3831 26.7202 10.6628 27 11.0081 27H13.5081C13.8531 27 14.1331 26.7202 14.1331 26.375V24.5H15.375L15.3757 30.75H15.375H9.125ZM16.6331 30.75V24.5H17.8831V26.375C17.8831 26.7202 18.1628 27 18.5081 27H21.0081C21.3531 27 21.6331 26.7202 21.6331 26.375V24.5H22.8831L22.8838 30.75H22.8831H16.6331Z" fill="#EB1616"/>
<path d="M23.4751 5.38262C23.6394 5.38262 23.8006 5.31575 23.917 5.1995C24.0337 5.08198 24.0995 4.92325 24.1001 4.75762C24.1001 4.59306 24.0332 4.432 23.917 4.31575C23.7995 4.19903 23.6408 4.13325 23.4751 4.13262C23.3106 4.13262 23.1494 4.1995 23.0333 4.31575C22.9171 4.432 22.8501 4.59306 22.8501 4.75762C22.8501 4.92193 22.917 5.08306 23.0333 5.1995C23.1507 5.31629 23.3095 5.38209 23.4751 5.38262ZM13.375 6.37506C13.375 7.82255 14.5525 9.00005 16 9.00005C17.4475 9.00005 18.625 7.82255 18.625 6.37506C18.625 4.92756 17.4475 3.75006 16 3.75006C14.5525 3.75006 13.375 4.92756 13.375 6.37506ZM17.375 6.37506C17.375 7.13312 16.7583 7.75005 16 7.75005C15.2417 7.75005 14.625 7.13312 14.625 6.37506C14.625 5.61674 15.2417 5.00006 16 5.00006C16.7583 5.00006 17.375 5.61674 17.375 6.37506Z" fill="#EB1616"/>
</svg>
